<?xml version="1.0" encoding="utf-8"?>
<!-- Generator: Adobe Illustrator 26.3.1, SVG Export Plug-In . SVG Version: 6.00 Build 0)  -->
<svg version="1.1" xmlns="http://www.w3.org/2000/svg" xmlns:xlink="http://www.w3.org/1999/xlink" x="0px" y="0px"
	 viewBox="0 0 400 600" style="enable-background:new 0 0 400 600;" xml:space="preserve">
<style type="text/css">
	.st0{display:none;}
	.st1{fill:#F7F5F5;}
	.st2{fill:#FFFFFF;}
</style>
<g id="Ebene_2" class="st0">
	
		<image style="display:inline;overflow:visible;" width="696" height="360" xlink:href="BF1F405C.jpg"  transform="matrix(1 0 0 1 -374 87)">
	</image>
</g>
<g id="Ebene_1">
	<g>
		<rect x="0.8" y="0.5" class="st1" width="399" height="599"/>
		<g>
			<path d="M399.3,1v598H1.3V1H399.3 M400.3,0H0.3v600h400V0L400.3,0z"/>
		</g>
	</g>
	<g>
		
			<ellipse transform="matrix(0.7071 -0.7071 0.7071 0.7071 -42.1202 102.1588)" class="st2" cx="102.3" cy="101.9" rx="66.8" ry="66.8"/>
		<g>
			<path d="M102.3,35.6c36.6,0,66.3,29.7,66.3,66.3s-29.7,66.3-66.3,66.3s-66.3-29.7-66.3-66.3S65.7,35.6,102.3,35.6 M102.3,34.6
				c-37.2,0-67.3,30.1-67.3,67.3s30.1,67.3,67.3,67.3s67.3-30.1,67.3-67.3S139.4,34.6,102.3,34.6L102.3,34.6z"/>
		</g>
	</g>
	<g>
		<circle class="st2" cx="294.6" cy="101.9" r="66.8"/>
		<g>
			<path d="M294.6,35.6c36.6,0,66.3,29.7,66.3,66.3s-29.7,66.3-66.3,66.3s-66.3-29.7-66.3-66.3S258,35.6,294.6,35.6 M294.6,34.6
				c-37.2,0-67.3,30.1-67.3,67.3s30.1,67.3,67.3,67.3s67.3-30.1,67.3-67.3S331.7,34.6,294.6,34.6L294.6,34.6z"/>
		</g>
	</g>
	<g>
		
			<ellipse transform="matrix(0.9239 -0.3827 0.3827 0.9239 -107.7572 62.1145)" class="st2" cx="102.3" cy="301.9" rx="66.8" ry="66.8"/>
		<g>
			<path d="M102.3,235.6c36.6,0,66.3,29.7,66.3,66.3s-29.7,66.3-66.3,66.3s-66.3-29.7-66.3-66.3S65.7,235.6,102.3,235.6
				 M102.3,234.6c-37.2,0-67.3,30.1-67.3,67.3s30.1,67.3,67.3,67.3s67.3-30.1,67.3-67.3S139.4,234.6,102.3,234.6L102.3,234.6z"/>
		</g>
	</g>
	<g>
		<circle class="st2" cx="294.6" cy="301.9" r="66.8"/>
		<g>
			<path d="M294.6,235.6c36.6,0,66.3,29.7,66.3,66.3s-29.7,66.3-66.3,66.3s-66.3-29.7-66.3-66.3S258,235.6,294.6,235.6 M294.6,234.6
				c-37.2,0-67.3,30.1-67.3,67.3s30.1,67.3,67.3,67.3s67.3-30.1,67.3-67.3S331.7,234.6,294.6,234.6L294.6,234.6z"/>
		</g>
	</g>
	<g>
		
			<ellipse transform="matrix(0.9239 -0.3827 0.3827 0.9239 -182.8223 77.0459)" class="st2" cx="102.3" cy="498.1" rx="66.8" ry="66.8"/>
		<g>
			<path d="M102.3,431.8c36.6,0,66.3,29.7,66.3,66.3s-29.7,66.3-66.3,66.3s-66.3-29.7-66.3-66.3S65.7,431.8,102.3,431.8
				 M102.3,430.8c-37.2,0-67.3,30.1-67.3,67.3s30.1,67.3,67.3,67.3s67.3-30.1,67.3-67.3S139.4,430.8,102.3,430.8L102.3,430.8z"/>
		</g>
	</g>
	<g>
		<circle class="st2" cx="294.6" cy="498.1" r="66.8"/>
		<g>
			<path d="M294.6,431.8c36.6,0,66.3,29.7,66.3,66.3s-29.7,66.3-66.3,66.3s-66.3-29.7-66.3-66.3S258,431.8,294.6,431.8 M294.6,430.8
				c-37.2,0-67.3,30.1-67.3,67.3s30.1,67.3,67.3,67.3s67.3-30.1,67.3-67.3S331.7,430.8,294.6,430.8L294.6,430.8z"/>
		</g>
	</g>
</g>
<g id="Ebene_3" class="st0">
</g>
</svg>
