<?xml version="1.0" encoding="utf-8"?>
<!-- Generator: Adobe Illustrator 26.3.1, SVG Export Plug-In . SVG Version: 6.00 Build 0)  -->
<svg version="1.1" xmlns="http://www.w3.org/2000/svg" xmlns:xlink="http://www.w3.org/1999/xlink" x="0px" y="0px"
	 viewBox="0 0 600 600" style="enable-background:new 0 0 600 600;" xml:space="preserve">
<style type="text/css">
	.st0{display:none;}
	.st1{fill:#F7F5F5;}
	.st2{fill:#FFFFFF;}
</style>
<g id="Ebene_2" class="st0">
	
		<image style="display:inline;overflow:visible;" width="696" height="360" xlink:href="265BB885.jpg"  transform="matrix(1 0 0 1 -265 87)">
	</image>
</g>
<g id="Ebene_1">
	<g>
		<rect x="255.5" y="172.5" class="st1" width="103" height="155"/>
		<g>
			<path d="M358,173v154H256V173H358 M359,172H255v156h104V172L359,172z"/>
		</g>
	</g>
	<g>
		<circle class="st2" cx="281.5" cy="198.5" r="17"/>
		<g>
			<path d="M281.5,182c9.1,0,16.5,7.4,16.5,16.5s-7.4,16.5-16.5,16.5s-16.5-7.4-16.5-16.5S272.4,182,281.5,182 M281.5,181
				c-9.7,0-17.5,7.8-17.5,17.5s7.8,17.5,17.5,17.5s17.5-7.8,17.5-17.5S291.2,181,281.5,181L281.5,181z"/>
		</g>
	</g>
	<g>
		<circle class="st2" cx="331.5" cy="198.5" r="17"/>
		<g>
			<path d="M331.5,182c9.1,0,16.5,7.4,16.5,16.5s-7.4,16.5-16.5,16.5s-16.5-7.4-16.5-16.5S322.4,182,331.5,182 M331.5,181
				c-9.7,0-17.5,7.8-17.5,17.5s7.8,17.5,17.5,17.5s17.5-7.8,17.5-17.5S341.2,181,331.5,181L331.5,181z"/>
		</g>
	</g>
	<g>
		<circle class="st2" cx="281.5" cy="250.5" r="17"/>
		<g>
			<path d="M281.5,234c9.1,0,16.5,7.4,16.5,16.5c0,9.1-7.4,16.5-16.5,16.5s-16.5-7.4-16.5-16.5C265,241.4,272.4,234,281.5,234
				 M281.5,233c-9.7,0-17.5,7.8-17.5,17.5s7.8,17.5,17.5,17.5s17.5-7.8,17.5-17.5S291.2,233,281.5,233L281.5,233z"/>
		</g>
	</g>
	<g>
		<circle class="st2" cx="331.5" cy="250.5" r="17"/>
		<g>
			<path d="M331.5,234c9.1,0,16.5,7.4,16.5,16.5c0,9.1-7.4,16.5-16.5,16.5s-16.5-7.4-16.5-16.5C315,241.4,322.4,234,331.5,234
				 M331.5,233c-9.7,0-17.5,7.8-17.5,17.5s7.8,17.5,17.5,17.5s17.5-7.8,17.5-17.5S341.2,233,331.5,233L331.5,233z"/>
		</g>
	</g>
	<g>
		<circle class="st2" cx="281.5" cy="301.5" r="17"/>
		<g>
			<path d="M281.5,285c9.1,0,16.5,7.4,16.5,16.5s-7.4,16.5-16.5,16.5s-16.5-7.4-16.5-16.5S272.4,285,281.5,285 M281.5,284
				c-9.7,0-17.5,7.8-17.5,17.5s7.8,17.5,17.5,17.5s17.5-7.8,17.5-17.5S291.2,284,281.5,284L281.5,284z"/>
		</g>
	</g>
	<g>
		<circle class="st2" cx="331.5" cy="301.5" r="17"/>
		<g>
			<path d="M331.5,285c9.1,0,16.5,7.4,16.5,16.5s-7.4,16.5-16.5,16.5s-16.5-7.4-16.5-16.5S322.4,285,331.5,285 M331.5,284
				c-9.7,0-17.5,7.8-17.5,17.5s7.8,17.5,17.5,17.5s17.5-7.8,17.5-17.5S341.2,284,331.5,284L331.5,284z"/>
		</g>
	</g>
</g>
<g id="Ebene_3" class="st0">
</g>
</svg>
