<?xml version="1.0" encoding="utf-8"?>
<!-- Generator: Adobe Illustrator 26.3.1, SVG Export Plug-In . SVG Version: 6.00 Build 0)  -->
<svg version="1.1" xmlns="http://www.w3.org/2000/svg" xmlns:xlink="http://www.w3.org/1999/xlink" x="0px" y="0px"
	 viewBox="0 0 400 600" style="enable-background:new 0 0 400 600;" xml:space="preserve">
<style type="text/css">
	.st0{display:none;}
	.st1{fill:#333232;}
	.st2{fill:#474545;}
</style>
<g id="Ebene_2" class="st0">
	
		<image style="display:inline;overflow:visible;" width="696" height="360" xlink:href="112E5061.jpg"  transform="matrix(1 0 0 1 -372 87)">
	</image>
</g>
<g id="Ebene_1">
	<g>
		<rect x="0.5" y="0.5" class="st1" width="399" height="599"/>
		<g>
			<path d="M399,1v598H1V1H399 M400,0H0v600h400V0L400,0z"/>
		</g>
	</g>
	<g>
		
			<ellipse transform="matrix(0.7071 -0.7071 0.7071 0.7071 -42.2179 101.923)" class="st2" cx="101.9" cy="101.9" rx="66.8" ry="66.8"/>
		<g>
			<path d="M101.9,35.6c36.6,0,66.3,29.7,66.3,66.3s-29.7,66.3-66.3,66.3s-66.3-29.7-66.3-66.3S65.4,35.6,101.9,35.6 M101.9,34.6
				c-37.2,0-67.3,30.1-67.3,67.3s30.1,67.3,67.3,67.3s67.3-30.1,67.3-67.3S139.1,34.6,101.9,34.6L101.9,34.6z"/>
		</g>
	</g>
	<g>
		<circle class="st2" cx="294.2" cy="101.9" r="66.8"/>
		<path d="M294.2,35.6c36.6,0,66.3,29.7,66.3,66.3s-29.7,66.3-66.3,66.3s-66.3-29.7-66.3-66.3S257.7,35.6,294.2,35.6 M294.2,34.6
			c-37.2,0-67.3,30.1-67.3,67.3s30.1,67.3,67.3,67.3s67.3-30.1,67.3-67.3S331.4,34.6,294.2,34.6L294.2,34.6z"/>
	</g>
	<g>
		
			<ellipse transform="matrix(0.9239 -0.3827 0.3827 0.9239 -107.7826 61.9868)" class="st2" cx="101.9" cy="301.9" rx="66.8" ry="66.8"/>
		<g>
			<path d="M101.9,235.6c36.6,0,66.3,29.7,66.3,66.3s-29.7,66.3-66.3,66.3s-66.3-29.7-66.3-66.3S65.4,235.6,101.9,235.6
				 M101.9,234.6c-37.2,0-67.3,30.1-67.3,67.3s30.1,67.3,67.3,67.3s67.3-30.1,67.3-67.3S139.1,234.6,101.9,234.6L101.9,234.6z"/>
		</g>
	</g>
	<g>
		<circle class="st2" cx="294.2" cy="301.9" r="66.8"/>
		<g>
			<path d="M294.2,235.6c36.6,0,66.3,29.7,66.3,66.3s-29.7,66.3-66.3,66.3s-66.3-29.7-66.3-66.3S257.7,235.6,294.2,235.6
				 M294.2,234.6c-37.2,0-67.3,30.1-67.3,67.3s30.1,67.3,67.3,67.3s67.3-30.1,67.3-67.3S331.4,234.6,294.2,234.6L294.2,234.6z"/>
		</g>
	</g>
	<g>
		
			<ellipse transform="matrix(0.9239 -0.3827 0.3827 0.9239 -182.8476 76.9182)" class="st2" cx="101.9" cy="498.1" rx="66.8" ry="66.8"/>
		<g>
			<path d="M101.9,431.8c36.6,0,66.3,29.7,66.3,66.3s-29.7,66.3-66.3,66.3s-66.3-29.7-66.3-66.3S65.4,431.8,101.9,431.8
				 M101.9,430.8c-37.2,0-67.3,30.1-67.3,67.3s30.1,67.3,67.3,67.3s67.3-30.1,67.3-67.3S139.1,430.8,101.9,430.8L101.9,430.8z"/>
		</g>
	</g>
	<g>
		<circle class="st2" cx="294.2" cy="498.1" r="66.8"/>
		<g>
			<path d="M294.2,431.8c36.6,0,66.3,29.7,66.3,66.3s-29.7,66.3-66.3,66.3s-66.3-29.7-66.3-66.3S257.7,431.8,294.2,431.8
				 M294.2,430.8c-37.2,0-67.3,30.1-67.3,67.3s30.1,67.3,67.3,67.3s67.3-30.1,67.3-67.3S331.4,430.8,294.2,430.8L294.2,430.8z"/>
		</g>
	</g>
</g>
<g id="Ebene_3" class="st0">
</g>
</svg>
